{"accessors" : [{"bufferView" : 0, "byteOffset" : 0, "componentType" : 5123, "count" : 3888, "type" : "SCALAR", "max" : [3887], "min" : [0]}, {"bufferView" : 1, "byteOffset" : 0, "componentType" : 5126, "count" : 3888, "type" : "VEC3", "max" : [0.4626297056674957, 0.6083704829216003, 3.1091907024383545], "min" : [-0.26000165939331055, -0.2012043446302414, -0.07202761620283127], "name" : "POSITION"}, {"bufferView" : 1, "byteOffset" : 12, "componentType" : 5126, "count" : 3888, "type" : "VEC3", "max" : [0.9897078275680542, 0.9974196553230286, 0.9932025074958801], "min" : [-0.9961796402931213, -0.9947958588600159, -0.9987243413925171], "name" : "NORMAL"}, {"bufferView" : 0, "byteOffset" : 7776, "componentType" : 5123, "count" : 150, "type" : "SCALAR", "max" : [149], "min" : [0]}, {"bufferView" : 2, "byteOffset" : 0, "componentType" : 5126, "count" : 150, "type" : "VEC3", "max" : [0.36980921030044556, 0.45076096057891846, 2.8373184204101562], "min" : [-0.18734210729599, -0.19932188093662262, 0.012368390336632729], "name" : "POSITION"}, {"bufferView" : 2, "byteOffset" : 12, "componentType" : 5126, "count" : 150, "type" : "VEC3", "max" : [0.90289306640625, 0.9318678379058838, 0.6369829177856445], "min" : [-0.9144659042358398, -0.992218554019928, -0.457530677318573], "name" : "NORMAL"}, {"bufferView" : 0, "byteOffset" : 8076, "componentType" : 5123, "count" : 768, "type" : "SCALAR", "max" : [767], "min" : [0]}, {"bufferView" : 3, "byteOffset" : 0, "componentType" : 5126, "count" : 768, "type" : "VEC3", "max" : [0.5938462615013123, 1.1283049583435059, 4.021173000335693], "min" : [-0.7607650756835938, -0.6091697216033936, 1.729095220565796], "name" : "POSITION"}, {"bufferView" : 3, "byteOffset" : 12, "componentType" : 5126, "count" : 768, "type" : "VEC3", "max" : [0.9608147144317627, 0.9902557134628296, 0.9854345321655273], "min" : [-0.9996955990791321, -0.9973064064979553, -0.9958023428916931], "name" : "NORMAL"}, {"bufferView" : 0, "byteOffset" : 9612, "componentType" : 5123, "count" : 384, "type" : "SCALAR", "max" : [383], "min" : [0]}, {"bufferView" : 4, "byteOffset" : 0, "componentType" : 5126, "count" : 384, "type" : "VEC3", "max" : [0.8140110969543457, 0.3772020637989044, 2.6976394653320312], "min" : [-0.2532714307308197, -0.6420614719390869, 1.301911473274231], "name" : "POSITION"}, {"bufferView" : 4, "byteOffset" : 12, "componentType" : 5126, "count" : 384, "type" : "VEC3", "max" : [0.9536900520324707, 0.9808552861213684, 0.9483530521392822], "min" : [-0.9991722106933594, -0.9746335744857788, -0.9609153866767883], "name" : "NORMAL"}], "asset" : {"generator" : "Aspose.3D 22.7", "version" : "2.0"}, "buffers" : [{"uri" : "data:application/octet-stream;base64,", "byteLength" : 134960}], "bufferViews" : [{"buffer" : 0, "byteOffset" : 0, "byteLength" : 10380, "target" : 34963}, {"buffer" : 0, "byteOffset" : 10384, "byteLength" : 93312, "byteStride" : 24, "target" : 34962}, {"buffer" : 0, "byteOffset" : 103700, "byteLength" : 3600, "byteStride" : 24, "target" : 34962}, {"buffer" : 0, "byteOffset" : 107304, "byteLength" : 18432, "byteStride" : 24, "target" : 34962}, {"buffer" : 0, "byteOffset" : 125740, "byteLength" : 9216, "byteStride" : 24, "target" : 34962}], "materials" : [{"name" : "White", "pbrMetallicRoughness" : {"baseColorFactor" : [0.6554416418075562, 0.685953676700592, 0.6257363557815552, 1], "metallicFactor" : 0, "roughnessFactor" : 0}, "emissiveFactor" : [0.6554416418075562, 0.685953676700592, 0.6257363557815552], "alphaMode" : "OPAQUE", "doubleSided" : false}, {"name" : "Black", "pbrMetallicRoughness" : {"baseColorFactor" : [0.05496654286980629, 0.05496654286980629, 0.05496654286980629, 1], "metallicFactor" : 0, "roughnessFactor" : 0}, "emissiveFactor" : [0.05496654286980629, 0.05496654286980629, 0.05496654286980629], "alphaMode" : "OPAQUE", "doubleSided" : false}, {"name" : "Green", "pbrMetallicRoughness" : {"baseColorFactor" : [0.08744194358587265, 0.15232062339782715, 0.05986013635993004, 1], "metallicFactor" : 0, "roughnessFactor" : 0}, "emissiveFactor" : [0.08744194358587265, 0.15232062339782715, 0.05986013635993004], "alphaMode" : "OPAQUE", "doubleSided" : false}, {"name" : "DarkGreen", "pbrMetallicRoughness" : {"baseColorFactor" : [0.05316007137298584, 0.09083576500415802, 0.03697298839688301, 1], "metallicFactor" : 0, "roughnessFactor" : 0}, "emissiveFactor" : [0.05316007137298584, 0.09083576500415802, 0.03697298839688301], "alphaMode" : "OPAQUE", "doubleSided" : false}], "meshes" : [{"primitives" : [{"attributes" : {"POSITION" : 1, "NORMAL" : 2}, "indices" : 0, "material" : 0, "mode" : 4}, {"attributes" : {"POSITION" : 4, "NORMAL" : 5}, "indices" : 3, "material" : 1, "mode" : 4}, {"attributes" : {"POSITION" : 7, "NORMAL" : 8}, "indices" : 6, "material" : 2, "mode" : 4}, {"attributes" : {"POSITION" : 10, "NORMAL" : 11}, "indices" : 9, "material" : 3, "mode" : 4}], "name" : "Cube.065"}], "nodes" : [{"matrix" : [100, 0, 0, 0, 0, -1.6292067955264296E-05, -99.99999999999866, 0, 0, 99.99999999999866, -1.6292067955264296E-05, 0, 0, 0, 0, 1], "mesh" : 0, "name" : "BirchTree_3"}], "scene" : 0, "scenes" : [{"nodes" : [0]}]}