{"accessors" : [{"bufferView" : 0, "byteOffset" : 0, "componentType" : 5123, "count" : 3816, "type" : "SCALAR", "max" : [3815], "min" : [0]}, {"bufferView" : 1, "byteOffset" : 0, "componentType" : 5126, "count" : 3816, "type" : "VEC3", "max" : [0.3039851486682892, 0.11159828305244446, 2.5908420085906982], "min" : [-0.38454580307006836, -0.7694703340530396, -0.04246043041348457], "name" : "POSITION"}, {"bufferView" : 1, "byteOffset" : 12, "componentType" : 5126, "count" : 3816, "type" : "VEC3", "max" : [0.999863862991333, 0.9988353848457336, 0.949888288974762], "min" : [-0.9998189806938171, -0.9993095993995667, -0.9995081424713135], "name" : "NORMAL"}, {"bufferView" : 0, "byteOffset" : 7632, "componentType" : 5123, "count" : 120, "type" : "SCALAR", "max" : [119], "min" : [0]}, {"bufferView" : 2, "byteOffset" : 0, "componentType" : 5126, "count" : 120, "type" : "VEC3", "max" : [0.23677510023117065, 0.07393623888492584, 1.9180327653884888], "min" : [-0.32356685400009155, -0.6961138248443604, 0.07649492472410202], "name" : "POSITION"}, {"bufferView" : 2, "byteOffset" : 12, "componentType" : 5126, "count" : 120, "type" : "VEC3", "max" : [0.997704267501831, 0.858697235584259, 0.8573100566864014], "min" : [-0.9988746047019958, -0.9991998076438904, -0.6031718254089355], "name" : "NORMAL"}, {"bufferView" : 0, "byteOffset" : 7872, "componentType" : 5123, "count" : 384, "type" : "SCALAR", "max" : [383], "min" : [0]}, {"bufferView" : 3, "byteOffset" : 0, "componentType" : 5126, "count" : 384, "type" : "VEC3", "max" : [0.7376178503036499, 0.4577917158603668, 3.988313674926758], "min" : [-0.7313240766525269, -1.0936298370361328, 1.710138201713562], "name" : "POSITION"}, {"bufferView" : 3, "byteOffset" : 12, "componentType" : 5126, "count" : 384, "type" : "VEC3", "max" : [0.9743420481681824, 0.9535779356956482, 0.9853712320327759], "min" : [-0.9933566451072693, -0.9715262651443481, -0.9614812135696411], "name" : "NORMAL"}, {"bufferView" : 0, "byteOffset" : 8640, "componentType" : 5123, "count" : 384, "type" : "SCALAR", "max" : [383], "min" : [0]}, {"bufferView" : 4, "byteOffset" : 0, "componentType" : 5126, "count" : 384, "type" : "VEC3", "max" : [0.6187698841094971, -0.21632690727710724, 3.0860958099365234], "min" : [-0.43206119537353516, -1.2349350452423096, 1.3079710006713867], "name" : "POSITION"}, {"bufferView" : 4, "byteOffset" : 12, "componentType" : 5126, "count" : 384, "type" : "VEC3", "max" : [0.9940981864929199, 0.954059362411499, 0.931902289390564], "min" : [-0.9905511140823364, -0.9994598627090454, -0.9365656971931458], "name" : "NORMAL"}], "asset" : {"generator" : "Aspose.3D 22.7", "version" : "2.0"}, "buffers" : [{"uri" : "data:application/octet-stream;base64,", "byteLength" : 122324}], "bufferViews" : [{"buffer" : 0, "byteOffset" : 0, "byteLength" : 9408, "target" : 34963}, {"buffer" : 0, "byteOffset" : 9412, "byteLength" : 91584, "byteStride" : 24, "target" : 34962}, {"buffer" : 0, "byteOffset" : 101000, "byteLength" : 2880, "byteStride" : 24, "target" : 34962}, {"buffer" : 0, "byteOffset" : 103884, "byteLength" : 9216, "byteStride" : 24, "target" : 34962}, {"buffer" : 0, "byteOffset" : 113104, "byteLength" : 9216, "byteStride" : 24, "target" : 34962}], "materials" : [{"name" : "White.001", "pbrMetallicRoughness" : {"baseColorFactor" : [0.6554416418075562, 0.685953676700592, 0.6257363557815552, 1], "metallicFactor" : 0, "roughnessFactor" : 0}, "emissiveFactor" : [0.6554416418075562, 0.685953676700592, 0.6257363557815552], "alphaMode" : "OPAQUE", "doubleSided" : false}, {"name" : "Black.001", "pbrMetallicRoughness" : {"baseColorFactor" : [0.05496654286980629, 0.05496654286980629, 0.05496654286980629, 1], "metallicFactor" : 0, "roughnessFactor" : 0}, "emissiveFactor" : [0.05496654286980629, 0.05496654286980629, 0.05496654286980629], "alphaMode" : "OPAQUE", "doubleSided" : false}, {"name" : "Green.001", "pbrMetallicRoughness" : {"baseColorFactor" : [0.08744194358587265, 0.15232062339782715, 0.05986013635993004, 1], "metallicFactor" : 0, "roughnessFactor" : 0}, "emissiveFactor" : [0.08744194358587265, 0.15232062339782715, 0.05986013635993004], "alphaMode" : "OPAQUE", "doubleSided" : false}, {"name" : "DarkGreen.001", "pbrMetallicRoughness" : {"baseColorFactor" : [0.05316007137298584, 0.09083576500415802, 0.03697298839688301, 1], "metallicFactor" : 0, "roughnessFactor" : 0}, "emissiveFactor" : [0.05316007137298584, 0.09083576500415802, 0.03697298839688301], "alphaMode" : "OPAQUE", "doubleSided" : false}], "meshes" : [{"primitives" : [{"attributes" : {"POSITION" : 1, "NORMAL" : 2}, "indices" : 0, "material" : 0, "mode" : 4}, {"attributes" : {"POSITION" : 4, "NORMAL" : 5}, "indices" : 3, "material" : 1, "mode" : 4}, {"attributes" : {"POSITION" : 7, "NORMAL" : 8}, "indices" : 6, "material" : 2, "mode" : 4}, {"attributes" : {"POSITION" : 10, "NORMAL" : 11}, "indices" : 9, "material" : 3, "mode" : 4}], "name" : "Cube.064"}], "nodes" : [{"matrix" : [100, 0, 0, 0, 0, -1.6292067955264296E-05, -99.99999999999866, 0, 0, 99.99999999999866, -1.6292067955264296E-05, 0, 0, 0, 0, 1], "mesh" : 0, "name" : "BirchTree_2"}], "scene" : 0, "scenes" : [{"nodes" : [0]}]}