{"accessors" : [{"bufferView" : 0, "byteOffset" : 0, "componentType" : 5123, "count" : 3462, "type" : "SCALAR", "max" : [3461], "min" : [0]}, {"bufferView" : 1, "byteOffset" : 0, "componentType" : 5126, "count" : 3462, "type" : "VEC3", "max" : [0.28894829750061035, 0.7405366897583008, 4.295872211456299], "min" : [-0.2826823592185974, -0.31227031350135803, -0.07202761620283127], "name" : "POSITION"}, {"bufferView" : 1, "byteOffset" : 12, "componentType" : 5126, "count" : 3462, "type" : "VEC3", "max" : [0.9999817609786987, 0.9998166561126709, 0.9932020306587219], "min" : [-0.9997206330299377, -0.999874472618103, -0.9987242817878723], "name" : "NORMAL"}, {"bufferView" : 0, "byteOffset" : 6924, "componentType" : 5123, "count" : 204, "type" : "SCALAR", "max" : [203], "min" : [0]}, {"bufferView" : 2, "byteOffset" : 0, "componentType" : 5126, "count" : 204, "type" : "VEC3", "max" : [0.21614760160446167, 0.7128231525421143, 4.0239996910095215], "min" : [-0.2148088961839676, -0.2793632447719574, 0.012368390336632729], "name" : "POSITION"}, {"bufferView" : 2, "byteOffset" : 12, "componentType" : 5126, "count" : 204, "type" : "VEC3", "max" : [0.9998976588249207, 0.9988534450531006, 0.6366919875144958], "min" : [-0.999636173248291, -0.9983484745025635, -0.6043728590011597], "name" : "NORMAL"}, {"bufferView" : 0, "byteOffset" : 7332, "componentType" : 5123, "count" : 1152, "type" : "SCALAR", "max" : [1151], "min" : [0]}, {"bufferView" : 3, "byteOffset" : 0, "componentType" : 5126, "count" : 1152, "type" : "VEC3", "max" : [0.6595577001571655, 1.214640736579895, 4.9371490478515625], "min" : [-0.5276897549629211, -0.7188213467597961, 2.1573333740234375], "name" : "POSITION"}, {"bufferView" : 3, "byteOffset" : 12, "componentType" : 5126, "count" : 1152, "type" : "VEC3", "max" : [0.9932117462158203, 0.9997767210006714, 0.9949583411216736], "min" : [-0.9896511435508728, -0.9994737505912781, -0.9900652766227722], "name" : "NORMAL"}, {"bufferView" : 0, "byteOffset" : 9636, "componentType" : 5123, "count" : 384, "type" : "SCALAR", "max" : [383], "min" : [0]}, {"bufferView" : 4, "byteOffset" : 0, "componentType" : 5126, "count" : 384, "type" : "VEC3", "max" : [0.500921368598938, 0.8017272353172302, 2.884140968322754], "min" : [-0.10907785594463348, 0.15384657680988312, 2.091017723083496], "name" : "POSITION"}, {"bufferView" : 4, "byteOffset" : 12, "componentType" : 5126, "count" : 384, "type" : "VEC3", "max" : [0.9834656715393066, 0.9749134182929993, 0.9913781881332397], "min" : [-0.9674592018127441, -0.9272534847259521, -0.8754268884658813], "name" : "NORMAL"}], "asset" : {"generator" : "Aspose.3D 22.7", "version" : "2.0"}, "buffers" : [{"uri" : "data:application/octet-stream;base64,", "byteLength" : 135272}], "bufferViews" : [{"buffer" : 0, "byteOffset" : 0, "byteLength" : 10404, "target" : 34963}, {"buffer" : 0, "byteOffset" : 10408, "byteLength" : 83088, "byteStride" : 24, "target" : 34962}, {"buffer" : 0, "byteOffset" : 93500, "byteLength" : 4896, "byteStride" : 24, "target" : 34962}, {"buffer" : 0, "byteOffset" : 98400, "byteLength" : 27648, "byteStride" : 24, "target" : 34962}, {"buffer" : 0, "byteOffset" : 126052, "byteLength" : 9216, "byteStride" : 24, "target" : 34962}], "materials" : [{"name" : "White", "pbrMetallicRoughness" : {"baseColorFactor" : [0.6554416418075562, 0.685953676700592, 0.6257363557815552, 1], "metallicFactor" : 0, "roughnessFactor" : 0}, "emissiveFactor" : [0.6554416418075562, 0.685953676700592, 0.6257363557815552], "alphaMode" : "OPAQUE", "doubleSided" : false}, {"name" : "Black", "pbrMetallicRoughness" : {"baseColorFactor" : [0.05496654286980629, 0.05496654286980629, 0.05496654286980629, 1], "metallicFactor" : 0, "roughnessFactor" : 0}, "emissiveFactor" : [0.05496654286980629, 0.05496654286980629, 0.05496654286980629], "alphaMode" : "OPAQUE", "doubleSided" : false}, {"name" : "Green", "pbrMetallicRoughness" : {"baseColorFactor" : [0.08744194358587265, 0.15232062339782715, 0.05986013635993004, 1], "metallicFactor" : 0, "roughnessFactor" : 0}, "emissiveFactor" : [0.08744194358587265, 0.15232062339782715, 0.05986013635993004], "alphaMode" : "OPAQUE", "doubleSided" : false}, {"name" : "DarkGreen", "pbrMetallicRoughness" : {"baseColorFactor" : [0.05316007137298584, 0.09083576500415802, 0.03697298839688301, 1], "metallicFactor" : 0, "roughnessFactor" : 0}, "emissiveFactor" : [0.05316007137298584, 0.09083576500415802, 0.03697298839688301], "alphaMode" : "OPAQUE", "doubleSided" : false}], "meshes" : [{"primitives" : [{"attributes" : {"POSITION" : 1, "NORMAL" : 2}, "indices" : 0, "material" : 0, "mode" : 4}, {"attributes" : {"POSITION" : 4, "NORMAL" : 5}, "indices" : 3, "material" : 1, "mode" : 4}, {"attributes" : {"POSITION" : 7, "NORMAL" : 8}, "indices" : 6, "material" : 2, "mode" : 4}, {"attributes" : {"POSITION" : 10, "NORMAL" : 11}, "indices" : 9, "material" : 3, "mode" : 4}], "name" : "Cube.072"}], "nodes" : [{"matrix" : [100, 0, 0, 0, 0, -1.6292067955264296E-05, -99.99999999999866, 0, 0, 99.99999999999866, -1.6292067955264296E-05, 0, 0, 0, 0, 1], "mesh" : 0, "name" : "BirchTree_5"}], "scene" : 0, "scenes" : [{"nodes" : [0]}]}