{"accessors" : [{"bufferView" : 0, "byteOffset" : 0, "componentType" : 5123, "count" : 4512, "type" : "SCALAR", "max" : [4511], "min" : [0]}, {"bufferView" : 1, "byteOffset" : 0, "componentType" : 5126, "count" : 4512, "type" : "VEC3", "max" : [0.17044104635715485, 1.6560509204864502, 2.6863443851470947], "min" : [-0.32879436016082764, -0.9407399296760559, -0.006081199739128351], "name" : "POSITION"}, {"bufferView" : 1, "byteOffset" : 12, "componentType" : 5126, "count" : 4512, "type" : "VEC3", "max" : [0.999122142791748, 0.9954750537872314, 0.9705703258514404], "min" : [-0.9960262179374695, -0.99309241771698, -1.0000044107437134], "name" : "NORMAL"}, {"bufferView" : 0, "byteOffset" : 9024, "componentType" : 5123, "count" : 198, "type" : "SCALAR", "max" : [197], "min" : [0]}, {"bufferView" : 2, "byteOffset" : 0, "componentType" : 5126, "count" : 198, "type" : "VEC3", "max" : [0.17044104635715485, 1.515711784362793, 2.0041983127593994], "min" : [-0.3121642768383026, -0.858783483505249, 0.16162320971488953], "name" : "POSITION"}, {"bufferView" : 2, "byteOffset" : 12, "componentType" : 5126, "count" : 198, "type" : "VEC3", "max" : [0.9815858006477356, 0.9872276186943054, 0.7246363162994385], "min" : [-0.9961792230606079, -0.987829864025116, -0.7354598641395569], "name" : "NORMAL"}, {"bufferView" : 0, "byteOffset" : 9420, "componentType" : 5123, "count" : 1152, "type" : "SCALAR", "max" : [1151], "min" : [0]}, {"bufferView" : 3, "byteOffset" : 0, "componentType" : 5126, "count" : 1152, "type" : "VEC3", "max" : [0.34691566228866577, 1.9693970680236816, 3.5524203777313232], "min" : [-0.806090772151947, -0.554090678691864, 1.0804132223129272], "name" : "POSITION"}, {"bufferView" : 3, "byteOffset" : 12, "componentType" : 5126, "count" : 1152, "type" : "VEC3", "max" : [0.9993561506271362, 0.9982274174690247, 0.957128643989563], "min" : [-0.9982781410217285, -0.9961062669754028, -0.9388104677200317], "name" : "NORMAL"}, {"bufferView" : 0, "byteOffset" : 11724, "componentType" : 5123, "count" : 1152, "type" : "SCALAR", "max" : [1151], "min" : [0]}, {"bufferView" : 4, "byteOffset" : 0, "componentType" : 5126, "count" : 1152, "type" : "VEC3", "max" : [0.32024359703063965, 1.568747639656067, 3.0918352603912354], "min" : [-0.6877059936523438, -1.3178585767745972, 1.2403115034103394], "name" : "POSITION"}, {"bufferView" : 4, "byteOffset" : 12, "componentType" : 5126, "count" : 1152, "type" : "VEC3", "max" : [0.9994178414344788, 0.9982301592826843, 0.9378840923309326], "min" : [-0.998390257358551, -0.9933478236198425, -0.8946806788444519], "name" : "NORMAL"}], "asset" : {"generator" : "Aspose.3D 22.7", "version" : "2.0"}, "buffers" : [{"uri" : "data:application/octet-stream;base64,", "byteLength" : 182384}], "bufferViews" : [{"buffer" : 0, "byteOffset" : 0, "byteLength" : 14028, "target" : 34963}, {"buffer" : 0, "byteOffset" : 14032, "byteLength" : 108288, "byteStride" : 24, "target" : 34962}, {"buffer" : 0, "byteOffset" : 122324, "byteLength" : 4752, "byteStride" : 24, "target" : 34962}, {"buffer" : 0, "byteOffset" : 127080, "byteLength" : 27648, "byteStride" : 24, "target" : 34962}, {"buffer" : 0, "byteOffset" : 154732, "byteLength" : 27648, "byteStride" : 24, "target" : 34962}], "materials" : [{"name" : "White", "pbrMetallicRoughness" : {"baseColorFactor" : [0.6554416418075562, 0.685953676700592, 0.6257363557815552, 1], "metallicFactor" : 0, "roughnessFactor" : 0}, "emissiveFactor" : [0.6554416418075562, 0.685953676700592, 0.6257363557815552], "alphaMode" : "OPAQUE", "doubleSided" : false}, {"name" : "Black", "pbrMetallicRoughness" : {"baseColorFactor" : [0.05496654286980629, 0.05496654286980629, 0.05496654286980629, 1], "metallicFactor" : 0, "roughnessFactor" : 0}, "emissiveFactor" : [0.05496654286980629, 0.05496654286980629, 0.05496654286980629], "alphaMode" : "OPAQUE", "doubleSided" : false}, {"name" : "Green", "pbrMetallicRoughness" : {"baseColorFactor" : [0.08744194358587265, 0.15232062339782715, 0.05986013635993004, 1], "metallicFactor" : 0, "roughnessFactor" : 0}, "emissiveFactor" : [0.08744194358587265, 0.15232062339782715, 0.05986013635993004], "alphaMode" : "OPAQUE", "doubleSided" : false}, {"name" : "DarkGreen", "pbrMetallicRoughness" : {"baseColorFactor" : [0.05316007137298584, 0.09083576500415802, 0.03697298839688301, 1], "metallicFactor" : 0, "roughnessFactor" : 0}, "emissiveFactor" : [0.05316007137298584, 0.09083576500415802, 0.03697298839688301], "alphaMode" : "OPAQUE", "doubleSided" : false}], "meshes" : [{"primitives" : [{"attributes" : {"POSITION" : 1, "NORMAL" : 2}, "indices" : 0, "material" : 0, "mode" : 4}, {"attributes" : {"POSITION" : 4, "NORMAL" : 5}, "indices" : 3, "material" : 1, "mode" : 4}, {"attributes" : {"POSITION" : 7, "NORMAL" : 8}, "indices" : 6, "material" : 2, "mode" : 4}, {"attributes" : {"POSITION" : 10, "NORMAL" : 11}, "indices" : 9, "material" : 3, "mode" : 4}], "name" : "Cube.070"}], "nodes" : [{"matrix" : [100, 0, 0, 0, 0, -1.6292067955264296E-05, -99.99999999999866, 0, 0, 99.99999999999866, -1.6292067955264296E-05, 0, 0, 0, 0, 1], "mesh" : 0, "name" : "BirchTree_4"}], "scene" : 0, "scenes" : [{"nodes" : [0]}]}