{"accessors" : [{"bufferView" : 0, "byteOffset" : 0, "componentType" : 5123, "count" : 3216, "type" : "SCALAR", "max" : [3215], "min" : [0]}, {"bufferView" : 1, "byteOffset" : 0, "componentType" : 5126, "count" : 3216, "type" : "VEC3", "max" : [0.280149906873703, 1.6560511589050293, 2.686344623565674], "min" : [-0.21908558905124664, -0.15886908769607544, -0.006081616505980492], "name" : "POSITION"}, {"bufferView" : 1, "byteOffset" : 12, "componentType" : 5126, "count" : 3216, "type" : "VEC3", "max" : [0.9991222023963928, 0.9954747557640076, 0.9319218397140503], "min" : [-0.9960262179374695, -0.9923427700996399, -1.0000044107437134], "name" : "NORMAL"}, {"bufferView" : 0, "byteOffset" : 6432, "componentType" : 5123, "count" : 168, "type" : "SCALAR", "max" : [167], "min" : [0]}, {"bufferView" : 2, "byteOffset" : 0, "componentType" : 5126, "count" : 168, "type" : "VEC3", "max" : [0.280149906873703, 1.5157122611999512, 2.0041983127593994], "min" : [-0.20245550572872162, -0.1535726934671402, 0.161623015999794], "name" : "POSITION"}, {"bufferView" : 2, "byteOffset" : 12, "componentType" : 5126, "count" : 168, "type" : "VEC3", "max" : [0.9815864562988281, 0.9484933018684387, 0.5885482430458069], "min" : [-0.996172308921814, -0.9878299832344055, -0.7354548573493958], "name" : "NORMAL"}, {"bufferView" : 0, "byteOffset" : 6768, "componentType" : 5123, "count" : 1488, "type" : "SCALAR", "max" : [1487], "min" : [0]}, {"bufferView" : 3, "byteOffset" : 0, "componentType" : 5126, "count" : 1488, "type" : "VEC3", "max" : [0.8790640234947205, 1.9104607105255127, 3.567718267440796], "min" : [-0.8227963447570801, -0.569269061088562, 1.1012389659881592], "name" : "POSITION"}, {"bufferView" : 3, "byteOffset" : 12, "componentType" : 5126, "count" : 1488, "type" : "VEC3", "max" : [0.9939090609550476, 0.9967808723449707, 0.9682878255844116], "min" : [-0.9950733184814453, -0.9958065152168274, -0.986536979675293], "name" : "NORMAL"}, {"bufferView" : 0, "byteOffset" : 9744, "componentType" : 5123, "count" : 240, "type" : "SCALAR", "max" : [239], "min" : [0]}, {"bufferView" : 4, "byteOffset" : 0, "componentType" : 5126, "count" : 240, "type" : "VEC3", "max" : [0.3609596788883209, 1.301464557647705, 1.5151512622833252], "min" : [-0.2677575647830963, 0.7045071721076965, 0.8774142861366272], "name" : "POSITION"}, {"bufferView" : 4, "byteOffset" : 12, "componentType" : 5126, "count" : 240, "type" : "VEC3", "max" : [0.8816918730735779, 0.9863182902336121, 0.9812623262405396], "min" : [-0.9832273125648499, -0.9892066121101379, -0.8760045766830444], "name" : "NORMAL"}], "asset" : {"generator" : "Aspose.3D 22.7", "version" : "2.0"}, "buffers" : [{"uri" : "data:application/octet-stream;base64,", "byteLength" : 132932}], "bufferViews" : [{"buffer" : 0, "byteOffset" : 0, "byteLength" : 10224, "target" : 34963}, {"buffer" : 0, "byteOffset" : 10228, "byteLength" : 77184, "byteStride" : 24, "target" : 34962}, {"buffer" : 0, "byteOffset" : 87416, "byteLength" : 4032, "byteStride" : 24, "target" : 34962}, {"buffer" : 0, "byteOffset" : 91452, "byteLength" : 35712, "byteStride" : 24, "target" : 34962}, {"buffer" : 0, "byteOffset" : 127168, "byteLength" : 5760, "byteStride" : 24, "target" : 34962}], "materials" : [{"name" : "White", "pbrMetallicRoughness" : {"baseColorFactor" : [0.6554416418075562, 0.685953676700592, 0.6257363557815552, 1], "metallicFactor" : 0, "roughnessFactor" : 0}, "emissiveFactor" : [0.6554416418075562, 0.685953676700592, 0.6257363557815552], "alphaMode" : "OPAQUE", "doubleSided" : false}, {"name" : "Black", "pbrMetallicRoughness" : {"baseColorFactor" : [0.05496654286980629, 0.05496654286980629, 0.05496654286980629, 1], "metallicFactor" : 0, "roughnessFactor" : 0}, "emissiveFactor" : [0.05496654286980629, 0.05496654286980629, 0.05496654286980629], "alphaMode" : "OPAQUE", "doubleSided" : false}, {"name" : "Green", "pbrMetallicRoughness" : {"baseColorFactor" : [0.08744194358587265, 0.15232062339782715, 0.05986013635993004, 1], "metallicFactor" : 0, "roughnessFactor" : 0}, "emissiveFactor" : [0.08744194358587265, 0.15232062339782715, 0.05986013635993004], "alphaMode" : "OPAQUE", "doubleSided" : false}, {"name" : "DarkGreen", "pbrMetallicRoughness" : {"baseColorFactor" : [0.05316007137298584, 0.09083576500415802, 0.03697298839688301, 1], "metallicFactor" : 0, "roughnessFactor" : 0}, "emissiveFactor" : [0.05316007137298584, 0.09083576500415802, 0.03697298839688301], "alphaMode" : "OPAQUE", "doubleSided" : false}], "meshes" : [{"primitives" : [{"attributes" : {"POSITION" : 1, "NORMAL" : 2}, "indices" : 0, "material" : 0, "mode" : 4}, {"attributes" : {"POSITION" : 4, "NORMAL" : 5}, "indices" : 3, "material" : 1, "mode" : 4}, {"attributes" : {"POSITION" : 7, "NORMAL" : 8}, "indices" : 6, "material" : 2, "mode" : 4}, {"attributes" : {"POSITION" : 10, "NORMAL" : 11}, "indices" : 9, "material" : 3, "mode" : 4}], "name" : "Cube"}], "nodes" : [{"matrix" : [100, 0, 0, 0, 0, -1.6292067955264296E-05, -99.99999999999866, 0, 0, 99.99999999999866, -1.6292067955264296E-05, 0, 0, 0, 0, 1], "mesh" : 0, "name" : "BirchTree_1"}], "scene" : 0, "scenes" : [{"nodes" : [0]}]}